# xmcd CD database file
# Copyright (C) 1993-1998 Ti Kan
# 
# Track frame offsets:
#     150
#     13662
#     26697
#     40337
#     54405
#     68487
#     80382
#     94450
#     107345
#     120955
#     134680
#     146602
#     158407
#     170177
#     179720
#     190087
#     201420
#     215810
#     227115
#     240447
#     255042
# 
# Disc length: 3543 seconds
# 
# Revision: 1
# Processed by: cddbd v1.4b41PL1 Copyright (c) Steve Scherf et al.
# Submitted via: DiscPlay 4.0.4
# 
DISCID=210dd515
DTITLE=Crowe, Douglas, Hicks, Lawson, Phillips, and Rice - The Bluegrass Compa
DTITLE=ct Disc Vol. 2
DYEAR=1900
DGENRE=
TTITLE0=Your Love Is Like A Flower
TTITLE1=Gonna Settle Down
TTITLE2=Toy Heart
TTITLE3=I'd Rather Be Alone
TTITLE4=Molly and Tenbrooks
TTITLE5=When You Are Lonely
TTITLE6=Somehow Tonight
TTITLE7=Don't This Road Look Rough and Rocky
TTITLE8=Big Spike Hammer
TTITLE9=Letter From My Darlin'
TTITLE10=So Happy I'll Be
TTITLE11=I Waiting To Hear You Call Me Darlin'
TTITLE12=Just When I Needed You
TTITLE13=Hey Lonesome
TTITLE14=Down The Road
TTITLE15=Please Search Your Heart
TTITLE16=Lonesome Wind Blues
TTITLE17=Come Back Darlin'
TTITLE18=Nobody Loves Me
TTITLE19=Pain In My Heart
TTITLE20=River of Death
EXTD=
EXTT0=
EXTT1=
EXTT2=
EXTT3=
EXTT4=
EXTT5=
EXTT6=
EXTT7=
EXTT8=
EXTT9=
EXTT10=
EXTT11=
EXTT12=
EXTT13=
EXTT14=
EXTT15=
EXTT16=
EXTT17=
EXTT18=
EXTT19=
EXTT20=
PLAYORDER=
